<?xml version="1.0" encoding="UTF-8" standalone="no"?>
<!-- Created with Inkscape (http://www.inkscape.org/) -->
<svg xmlns:dc="http://purl.org/dc/elements/1.1/" xmlns:cc="http://creativecommons.org/ns#" xmlns:rdf="http://www.w3.org/1999/02/22-rdf-syntax-ns#" xmlns:svg="http://www.w3.org/2000/svg" xmlns="http://www.w3.org/2000/svg" xmlns:xlink="http://www.w3.org/1999/xlink" xmlns:sodipodi="http://sodipodi.sourceforge.net/DTD/sodipodi-0.dtd" xmlns:inkscape="http://www.inkscape.org/namespaces/inkscape" width="210mm" height="297mm" id="svg2" version="1.1" inkscape:version="0.48.2 r9819" sodipodi:docname="agora.svg">
  <defs id="defs4">
    <linearGradient inkscape:collect="always" id="linearGradient3780">
      <stop style="stop-color:#729fcf;stop-opacity:1;" offset="0" id="stop3782"/>
      <stop style="stop-color:#729fcf;stop-opacity:0;" offset="1" id="stop3784"/>
    </linearGradient>
    <linearGradient inkscape:collect="always" xlink:href="#linearGradient3780" id="linearGradient3798" gradientUnits="userSpaceOnUse" x1="358.42142" y1="-0.14512351" x2="366.95526" y2="336.94168"/>
    <linearGradient inkscape:collect="always" xlink:href="#linearGradient3780" id="linearGradient3019" gradientUnits="userSpaceOnUse" x1="358.42142" y1="-0.14512351" x2="366.95526" y2="336.94168" gradientTransform="matrix(0.96537851,0,0,0.96537851,12.978482,56.041035)"/>
  </defs>
  <sodipodi:namedview id="base" pagecolor="#ffffff" bordercolor="#666666" borderopacity="1.0" inkscape:pageopacity="0.0" inkscape:pageshadow="2" inkscape:zoom="0.39530117" inkscape:cx="372.04724" inkscape:cy="526.18109" inkscape:document-units="px" inkscape:current-layer="layer1" showgrid="false" inkscape:window-width="1022" inkscape:window-height="579" inkscape:window-x="0" inkscape:window-y="19" inkscape:window-maximized="0" inkscape:snap-bbox="false" inkscape:bbox-nodes="false" inkscape:snap-nodes="false"/>
  <metadata id="metadata7">
    <rdf:RDF>
      <cc:Work rdf:about="">
        <dc:format>image/svg+xml</dc:format>
        <dc:type rdf:resource="http://purl.org/dc/dcmitype/StillImage"/>
        <dc:title/>
      </cc:Work>
    </rdf:RDF>
  </metadata>
  <g inkscape:label="Capa 1" inkscape:groupmode="layer" id="layer1">
    <rect style="fill:#ffffff;fill-opacity:1;fill-rule:evenodd;stroke:none" id="rect3788" width="724.97821" height="431.14236" x="12.378458" y="8.9167213" ry="2.9427292"/>
    <path style="fill:url(#linearGradient3019);fill-opacity:1;fill-rule:evenodd;stroke:none" d="M 367.2724,37.004978 C 341.0884,38.188261 69.724638,128.35392 69.724638,128.35392 l -0.603362,34.33127 23.380261,-0.15084 0,166.6183 c 0,1.59122 1.274739,2.86597 2.865967,2.86597 l 34.331276,0 c 1.59122,0 2.86596,-1.27475 2.86596,-2.86597 l 0,-166.91998 61.99541,-0.42235 0,167.34233 c 0,1.59122 1.30491,2.86597 2.89613,2.86597 l 34.30111,0 c 1.59122,0 2.89613,-1.27475 2.89613,-2.86597 l 0,-167.61384 61.9954,-0.42236 0,168.0362 c 0,1.59122 1.27475,2.86597 2.86597,2.86597 l 34.33127,0 c 1.59123,0 2.86597,-1.27475 2.86597,-2.86597 l 0,-168.33788 61.9954,-0.42235 0,168.76023 c 0,1.59122 1.30491,2.86597 2.89614,2.86597 l 34.33127,0 c 1.59123,0 2.86597,-1.27475 2.86597,-2.86597 l 0,-169.03174 61.9954,-0.42236 0,169.4541 c 0,1.59122 1.27474,2.86597 2.86597,2.86597 l 34.33127,0 c 1.59122,0 2.86597,-1.27475 2.86597,-2.86597 l 0,-169.75578 62.02557,-0.42235 0,170.17813 c 0,1.59122 1.27474,2.86597 2.86597,2.86597 l 34.33127,0 c 1.59122,0 2.86597,-1.27475 2.86597,-2.86597 l 0,-170.44964 34.54245,-0.24135 c 0,0 9.33892,-25.06357 0.48268,-27.7848 C 549.60942,91.234834 393.45639,35.821693 367.2724,37.004978 z" id="rect2995" inkscape:connector-curvature="0" sodipodi:nodetypes="scccssssccssssccssssccssssccssssccssssccss"/>
    <g style="font-size:207.33074951px;font-style:normal;font-variant:normal;font-weight:100;font-stretch:normal;text-align:center;line-height:100%;letter-spacing:0px;word-spacing:0px;writing-mode:lr-tb;text-anchor:middle;fill:#000000;fill-opacity:1;stroke:none;font-family:Adonais;-inkscape-font-specification:Adonais Thin" id="text2985">
      <path d="m 74.511569,320.15235 6.012592,-17.83045 c 2.487927,-7.18744 4.008351,-11.6796 4.561277,-13.4765 0.691057,-1.79683 1.79682,-2.69526 3.317292,-2.6953 l 41.67348,0 c 1.24389,4e-5 2.41877,1.72779 3.52462,5.18327 1.935,6.08173 3.3172,9.9519 4.14662,11.61053 0.82922,1.52044 2.48787,5.87438 4.97594,13.06183 0.27633,0.96755 0.76011,2.34975 1.45131,4.14662 1.3821,0 4.83761,-1.10576 10.36654,-3.31729 0.96743,-0.27644 2.28052,-0.89843 3.93928,-1.86598 3.04073,-1.65864 6.49624,-3.10995 10.36654,-4.35395 1.79674,-0.55287 2.55695,-1.24397 2.28064,-2.0733 L 126.13693,190.77796 c -2.07339,-5.52868 -3.24827,-8.70775 -3.52463,-9.53721 -1.65872,-4.14648 -2.97182,-6.21978 -3.93928,-6.21993 l -19.696422,5.3906 c -3.455567,1.10591 -6.911076,2.14256 -10.366538,3.10996 -0.414709,0.13836 -1.589582,3.1101 -3.524622,8.91523 L 45.692595,308.54183 c -5e-6,0.96755 4.008386,2.90264 12.025184,5.80526 2.90261,0.96755 8.500535,2.90263 16.79379,5.80526 M 107.89182,224.7802 c 2.62612,6.35824 5.45964,13.40747 8.50056,21.14774 2.07323,5.11423 3.38632,8.43152 3.93929,9.95187 l 0,0.82933 -23.843041,0 11.403191,-31.92894" style="" id="path3023"/>
      <path d="m 286.00189,306.88318 c -1.1e-4,-21.56236 -1.1e-4,-36.42105 0,-44.57611 -1.1e-4,-8.29316 -1.1e-4,-16.30995 0,-24.05037 l -30.27029,0 0,42.5028 c -8e-5,0.96759 -0.96762,1.45136 -2.90263,1.45132 -1.10584,4e-5 -6.21999,-4.97589 -15.34248,-14.92781 -9.1226,-9.95182 -13.68387,-15.41152 -13.68383,-16.37913 -4e-5,-1.1057 4.3539,-6.63451 13.06184,-16.58646 6.91096,-7.87848 14.99685,-16.8628 24.2577,-26.953 4.42297,-4.69938 8.84602,-9.46798 13.26917,-14.30582 -0.82942,-0.13809 -3.66294,-2.14229 -8.50056,-6.01259 -5.39069,-4.2847 -10.71217,-8.63864 -15.96447,-13.06184 -7.04931,7.46405 -14.09855,14.92795 -21.14774,22.39172 -12.71632,13.4075 -22.66819,24.32691 -29.85563,32.75826 -10.22832,11.88704 -15.34248,19.14361 -15.34247,21.76973 -1e-5,3.31736 5.52881,10.98859 16.58646,23.01371 8.56964,9.26081 18.79795,19.62734 30.68495,31.09961 10.91936,10.50477 16.51728,15.75714 16.79379,15.75714 6.21985,0 13.75286,-1.31309 22.59905,-3.93928 10.50466,-3.04085 15.75703,-6.35814 15.75714,-9.95188" style="" id="path3025"/>
      <path d="m 437.06178,260.02643 c 3.7318,-3.73189 5.59778,-8.15494 5.59793,-13.26917 -1.5e-4,-5.2523 -1.86613,-9.74446 -5.59793,-13.4765 L 383.36311,179.5821 c -3.59382,-3.59359 -8.01687,-5.39045 -13.26917,-5.3906 -4.97601,1.5e-4 -9.39906,1.79701 -13.26916,5.3906 l -55.35731,55.35731 c -3.59374,3.87026 -5.39061,8.29331 -5.3906,13.26917 -10e-6,5.25244 1.79686,9.6755 5.3906,13.26917 l 53.69866,53.69866 c 3.73189,3.73196 8.22405,5.59793 13.4765,5.59793 5.11408,0 9.53713,-1.86597 13.26917,-5.59793 l 55.14998,-55.14998 m -38.97819,-7.25658 -23.42837,23.42838 c -1.38228,1.52047 -3.24826,2.28068 -5.59793,2.28064 -2.34982,4e-5 -4.28491,-0.76017 -5.80526,-2.28064 l -22.80638,-22.80638 c -1.52047,-1.52036 -2.28069,-3.38633 -2.28064,-5.59793 -5e-5,-2.07324 0.76017,-4.00832 2.28064,-5.80527 l 23.6357,-23.42837 c 1.7968,-1.52032 3.66277,-2.28053 5.59793,-2.28064 2.21145,1.1e-4 4.07743,0.76032 5.59793,2.28064 l 22.80638,22.80638 c 1.52033,1.52051 2.28054,3.45559 2.28064,5.80526 -1e-4,2.34982 -0.76031,4.2158 -2.28064,5.59793" style="" id="path3027"/>
      <path d="m 563.78947,302.52923 2.90263,-1.86597 c -6.35826,-7.32566 -14.23682,-16.72465 -23.63571,-28.19699 -10.64306,-13.13088 -15.96454,-20.0419 -15.96447,-20.73307 -7e-5,-1.65857 2.90255,-5.8743 8.7079,-12.64718 4.28474,-4.97585 7.94758,-9.81356 10.98853,-14.51315 0.41456,-0.691 0.62189,-1.24388 0.62199,-1.65864 -10e-5,-0.55279 -0.20743,-1.17478 -0.62199,-1.86598 -6.63468,-8.29312 -17.41587,-20.45651 -32.3436,-36.49021 -5.25244,-5.6669 -7.87863,-8.77686 -7.87857,-9.32989 -1.24404,-0.82917 -2.69536,-1.58938 -4.35395,-2.28063 -1.52047,-0.69096 -3.24823,-1.03651 -5.18326,-1.03666 -0.69116,1.5e-4 -2.00425,0.13837 -3.93929,0.41466 -0.27648,0.27659 -6.91106,1.86613 -19.90375,4.76861 -4.28486,0.96769 -10.78121,2.419 -19.48909,4.35395 l 0,138.9116 c 5.39059,-0.96754 10.78118,-1.93509 16.1718,-2.90263 10.64294,-2.62619 16.58642,-4.28483 17.83044,-4.97594 l 0,-51.00336 2.48797,1.65864 c 1.24394,1.24404 5.94343,6.70375 14.09849,16.37913 7.04918,8.5697 14.16753,17.20848 21.35507,25.91634 7.3256,8.56968 11.33399,12.85451 12.02518,12.85451 0.69101,0 3.38631,-1.45131 8.0859,-4.35395 5.94338,-3.73194 11.95597,-7.533 18.03778,-11.40319 m -52.86934,-78.78568 c -7e-5,2.62628 -3.66291,6.70378 -10.98853,12.23251 -6.08175,4.56136 -10.09014,7.25666 -12.02519,8.0859 l 0,-41.05149 c 5.11412,3.87029 8.91518,6.77292 11.40319,8.7079 7.74029,6.22002 11.61046,10.22841 11.61053,12.02518" style="" id="path3029"/>
      <path d="m 604.98673,320.15235 6.01259,-17.83045 c 2.48793,-7.18744 4.00835,-11.6796 4.56128,-13.4765 0.69105,-1.79683 1.79682,-2.69526 3.31729,-2.6953 l 41.67348,0 c 1.24389,4e-5 2.41877,1.72779 3.52462,5.18327 1.93499,6.08173 3.3172,9.9519 4.14662,11.61053 0.82922,1.52044 2.48787,5.87438 4.97593,13.06183 0.27634,0.96755 0.76011,2.34975 1.45132,4.14662 1.3821,0 4.83761,-1.10576 10.36654,-3.31729 0.96743,-0.27644 2.28052,-0.89843 3.93928,-1.86598 3.04073,-1.65864 6.49624,-3.10995 10.36654,-4.35395 1.79674,-0.55287 2.55695,-1.24397 2.28064,-2.0733 L 656.61208,190.77796 c -2.07339,-5.52868 -3.24826,-8.70775 -3.52462,-9.53721 -1.65872,-4.14648 -2.97182,-6.21978 -3.93928,-6.21993 l -19.69642,5.3906 c -3.45557,1.10591 -6.91108,2.14256 -10.36654,3.10996 -0.41471,0.13836 -1.58958,3.1101 -3.52462,8.91523 l -39.39285,116.10522 c 0,0.96755 4.00839,2.90264 12.02519,5.80526 2.90261,0.96755 8.50053,2.90263 16.79379,5.80526 m 33.38025,-95.37215 c 2.62612,6.35824 5.45964,13.40747 8.50056,21.14774 2.07323,5.11423 3.38632,8.43152 3.93928,9.95187 l 0,0.82933 -23.84303,0 11.40319,-31.92894" style="" id="path3031"/>
    </g>
    <g style="font-size:96.16222382px;font-style:normal;font-variant:normal;font-weight:100;font-stretch:normal;text-align:center;line-height:100%;letter-spacing:0px;word-spacing:0px;writing-mode:lr-tb;text-anchor:middle;fill:#000000;fill-opacity:1;stroke:none;font-family:Adonais;-inkscape-font-specification:Adonais Thin" id="text2989">
      <path d="m 106.10605,343.59604 -12.404924,-4.61578 -15.193631,35.00305 -16.828389,-34.6184 -13.558874,2.40405 24.425205,52.21609 11.924116,-3.84649 21.636497,-46.54252" style="" id="path3034"/>
      <path d="m 167.22917,371.00228 c 1.53853,-1.34625 2.30783,-2.98101 2.30789,-4.90428 -6e-5,-1.8591 -0.76936,-3.52591 -2.30789,-5.00043 l -22.4058,-19.90558 c -1.53863,-1.34622 -3.39777,-2.01935 -5.57741,-2.01941 -2.1156,6e-5 -3.94268,0.67319 -5.48125,2.01941 l -23.17509,20.48255 c -0.7052,0.64111 -1.25011,1.41041 -1.63476,2.3079 -0.38465,0.83343 -0.57698,1.73094 -0.57698,2.69254 0,1.92327 0.73725,3.55802 2.21174,4.90427 l 22.50196,19.90558 c 1.47446,1.41038 3.33359,2.11557 5.57741,2.11557 2.24375,0 4.10288,-0.70519 5.5774,-2.11557 l 22.98278,-20.48255 m -16.25142,-2.69254 -9.80855,8.75076 c -0.577,0.57699 -1.3463,0.86547 -2.30789,0.86546 -0.89754,1e-5 -1.6989,-0.28847 -2.40406,-0.86546 l -9.52006,-8.46228 c -0.6411,-0.57695 -0.96164,-1.28213 -0.96162,-2.11557 -2e-5,-0.83337 0.32052,-1.53856 0.96162,-2.11557 l 9.80855,-8.75076 c 0.70516,-0.57693 1.50651,-0.86542 2.40406,-0.86546 0.83337,4e-5 1.60267,0.28853 2.30789,0.86546 l 9.52006,8.46228 c 0.64104,0.577 0.96158,1.28219 0.96162,2.11557 -4e-5,0.83343 -0.32058,1.53862 -0.96162,2.11557" style="" id="path3036"/>
      <path d="m 227.03456,339.94188 -48.85041,0 -5.96206,10.57784 20.57871,-0.0962 0,43.65765 13.94353,-2.88487 -0.19233,-40.58045 14.32817,0 6.15439,-10.67401" style="" id="path3038"/>
      <path d="m 244.69535,391.67716 0,-53.4662 -12.30877,1.92324 0,53.75469 12.30877,-2.21173" style="" id="path3040"/>
      <path d="m 297.0061,339.74955 -12.02028,1.92325 0,26.54077 -20.29023,-27.9832 -13.46271,2.21173 0,51.25446 13.55887,-2.0194 -0.0962,-27.98321 21.6365,30.00261 10.67401,-1.73092 0,-52.21609" style="" id="path3042"/>
      <path d="m 346.34333,388.40764 c -5e-5,-8.01351 -5e-5,-13.5268 0,-16.5399 -5e-5,-3.07717 -5e-5,-6.05819 0,-8.94309 l -12.59725,0 0,15.77061 c -3e-5,0.38466 -0.41674,0.57698 -1.25011,0.57697 -0.44879,1e-5 -2.59641,-1.82707 -6.44287,-5.48125 -3.7824,-3.71825 -5.67359,-5.76971 -5.67357,-6.15438 -2e-5,-0.38462 1.82706,-2.43608 5.48125,-6.15438 3.65413,-3.71824 7.01981,-7.05186 10.09703,-10.00087 3.65413,-3.52591 5.51326,-5.28888 5.57741,-5.28893 -0.32058,-0.0641 -1.57069,-0.86541 -3.75033,-2.40405 -2.1156,-1.53855 -4.29528,-3.10919 -6.53903,-4.71195 -0.19235,0.19238 -3.10927,2.94903 -8.75076,8.26995 -5.12867,4.80815 -9.2957,8.87902 -12.50109,12.2126 -4.29525,4.4235 -6.44287,7.11603 -6.44287,8.07763 0,1.21808 2.30789,4.07089 6.92368,8.55844 3.2054,3.14131 7.50064,6.9878 12.88574,11.53946 4.61576,3.9106 6.9557,5.8659 7.01984,5.8659 2.6284,0 5.7697,-0.48081 9.4239,-1.44243 4.35931,-1.15395 6.53898,-2.40405 6.53903,-3.75033" style="" id="path3044"/>
      <path d="m 440.9219,344.36534 -9.03925,-9.52006 -25.9638,17.11688 c -0.57698,0.38469 -0.99369,0.70523 -1.25011,0.96162 -0.89752,0.83345 -1.34628,1.6989 -1.34627,2.59638 -1e-5,0.89755 0.44875,1.79506 1.34627,2.69254 l 14.42433,11.92412 c 0.51285,0.51289 0.76928,1.02575 0.7693,1.53859 -2e-5,0.38467 -0.25645,0.76932 -0.7693,1.15395 -0.0641,0.0641 -0.19234,0.12824 -0.38465,0.19232 l -18.36698,11.7318 10.19319,9.52006 27.02159,-18.36699 c 0.89747,-0.57695 1.5065,-1.15393 1.82708,-1.73092 0.38461,-0.57695 0.57693,-1.15392 0.57697,-1.73092 -4e-5,-0.64106 -0.19236,-1.25009 -0.57697,-1.82708 -0.12826,-0.1923 -0.35263,-0.41668 -0.67314,-0.67314 l -15.09747,-12.59725 c -0.44878,-0.25639 -0.67315,-0.57693 -0.67313,-0.96162 -2e-5,-0.38461 0.25641,-0.76926 0.7693,-1.15395 0.12819,-0.12817 0.38462,-0.28844 0.76929,-0.48081 l 16.44375,-10.38552" style="" id="path3046"/>
      <path d="m 498.74993,342.15361 -12.11644,-4.3273 -14.42434,18.8478 -15.48212,-18.8478 -13.07806,4.90427 21.34802,26.54078 -0.0962,24.61753 13.36655,-2.98103 0,-21.92499 20.48256,-26.82926" style="" id="path3048"/>
      <path d="m 541.96734,344.36534 -9.03925,-9.52006 -25.9638,17.11688 c -0.57698,0.38469 -0.99369,0.70523 -1.25011,0.96162 -0.89752,0.83345 -1.34628,1.6989 -1.34627,2.59638 -10e-6,0.89755 0.44875,1.79506 1.34627,2.69254 l 14.42433,11.92412 c 0.51285,0.51289 0.76928,1.02575 0.7693,1.53859 -2e-5,0.38467 -0.25645,0.76932 -0.7693,1.15395 -0.0641,0.0641 -0.19234,0.12824 -0.38465,0.19232 l -18.36698,11.7318 10.19319,9.52006 27.02159,-18.36699 c 0.89747,-0.57695 1.5065,-1.15393 1.82708,-1.73092 0.38461,-0.57695 0.57693,-1.15392 0.57697,-1.73092 -4e-5,-0.64106 -0.19236,-1.25009 -0.57697,-1.82708 -0.12826,-0.1923 -0.35263,-0.41668 -0.67314,-0.67314 l -15.09746,-12.59725 c -0.44879,-0.25639 -0.67316,-0.57693 -0.67314,-0.96162 -2e-5,-0.38461 0.25641,-0.76926 0.7693,-1.15395 0.12819,-0.12817 0.38462,-0.28844 0.7693,-0.48081 l 16.44374,-10.38552" style="" id="path3050"/>
      <path d="m 598.16064,339.94188 -48.85041,0 -5.96206,10.57784 20.57872,-0.0962 0,43.65765 13.94352,-2.88487 -0.19232,-40.58045 14.32817,0 6.15438,-10.67401" style="" id="path3052"/>
      <path d="m 638.80423,345.61545 c -3e-5,-0.25638 -1.37836,-1.82703 -4.13497,-4.71195 -0.89755,-0.89746 -2.27587,-2.30784 -4.13498,-4.23114 -0.44878,6e-5 -3.91062,1.66687 -10.38552,5.00044 -5.76974,3.01313 -11.53947,5.99416 -17.3092,8.94309 -0.19232,0.12826 -0.28849,0.32058 -0.28848,0.57697 -10e-6,0.32058 0.0962,0.57701 0.28848,0.7693 3.46184,3.46188 6.09027,6.12236 7.88531,7.98146 2.5002,2.56436 3.75031,3.94268 3.75032,4.13498 -10e-6,0.32057 -1.28217,1.57068 -3.84649,3.75032 -2.17968,1.85916 -4.77606,3.91062 -7.78914,6.15439 -0.25643,0.25645 -0.38465,0.57699 -0.38465,0.96162 0,0.38467 0.12822,0.67315 0.38465,0.86546 l 24.61753,17.79001 9.71239,-6.92368 c -4e-5,-0.25643 -0.5129,-0.67313 -1.5386,-1.25011 -0.12825,-0.0641 -0.48084,-0.25642 -1.05778,-0.57697 -0.57701,-0.32053 -2.72463,-1.89118 -6.44287,-4.71195 -4.23116,-3.2695 -6.34673,-5.2248 -6.34671,-5.8659 -2e-5,-0.57695 0.99366,-1.7309 2.98103,-3.46184 3.07716,-2.75662 5.12862,-4.64781 6.15438,-5.67357 0.38462,-0.38462 0.38462,-0.76927 0,-1.15394 -2.37203,-2.43608 -4.45554,-4.51959 -6.25054,-6.25055 -0.76932,-0.70515 -1.73094,-1.63472 -2.88487,-2.7887 -2e-5,-0.38461 2.82074,-2.05142 8.46228,-5.00044 1.8591,-0.96158 4.71191,-2.40401 8.55843,-4.3273" style="" id="path3054"/>
      <path d="m 695.80284,339.55723 -14.32817,2.30789 -10.86633,17.69385 -10.77017,-20.00174 -15.96293,1.5386 0,52.50457 13.75119,-1.05778 0,-29.42564 11.53947,23.94439 13.17423,-21.92499 0,29.13716 13.46271,-1.73092 0,-52.98539" style="" id="path3056"/>
    </g>
  </g>
</svg>